<svg xmlns="http://www.w3.org/2000/svg" viewBox="0 0 1100 600" fill="none">
  <defs>
    <filter id="wfs-glow" x="-30%" y="-30%" width="160%" height="160%">
      <feGaussianBlur in="SourceGraphic" stdDeviation="4" result="blur"/>
      <feColorMatrix in="blur" type="matrix" values="0 0 0 0 0  0.4 0.7 0.8 0 0  0.2 0.7 0.9 0 0  0 0 0 0.4 0"/>
      <feMerge><feMergeNode/><feMergeNode in="SourceGraphic"/></feMerge>
    </filter>
    <filter id="vbap-glow" x="-30%" y="-30%" width="160%" height="160%">
      <feGaussianBlur in="SourceGraphic" stdDeviation="3" result="blur"/>
      <feColorMatrix in="blur" type="matrix" values="1 0 0 0 0  0.2 0 0 0 0  0.1 0 0 0 0  0 0 0 0.35 0"/>
      <feMerge><feMergeNode/><feMergeNode in="SourceGraphic"/></feMerge>
    </filter>
    <filter id="source-pulse">
      <feGaussianBlur in="SourceGraphic" stdDeviation="6" result="blur"/>
      <feColorMatrix in="blur" type="matrix" values="0 0 0 0 0  0.8 1 1 0 0  0.4 0.9 1 0 0  0 0 0 0.7 0"/>
      <feMerge><feMergeNode/><feMergeNode in="SourceGraphic"/></feMerge>
    </filter>
    <filter id="panel-drop">
      <feDropShadow dx="0" dy="3" stdDeviation="8" flood-color="#000" flood-opacity="0.35"/>
    </filter>
    <filter id="scan">
      <feTurbulence type="fractalNoise" baseFrequency="0 0.7" numOctaves="1"/>
      <feColorMatrix type="saturate" values="0"/>
      <feComponentTransfer><feFuncA type="linear" slope="0.025"/></feComponentTransfer>
    </filter>

    <linearGradient id="bg2" x1="0" y1="0" x2="0" y2="1">
      <stop offset="0%" stop-color="#0f1318"/><stop offset="100%" stop-color="#090c10"/>
    </linearGradient>
    <radialGradient id="wfs-uniform" cx="50%" cy="30%" r="70%">
      <stop offset="0%" stop-color="#22c55e" stop-opacity="0.06"/>
      <stop offset="50%" stop-color="#22c55e" stop-opacity="0.035"/>
      <stop offset="100%" stop-color="#22c55e" stop-opacity="0.01"/>
    </radialGradient>
    <radialGradient id="vbap-center" cx="50%" cy="50%" r="30%">
      <stop offset="0%" stop-color="#22c55e" stop-opacity="0.08"/>
      <stop offset="60%" stop-color="#f0883e" stop-opacity="0.04"/>
      <stop offset="100%" stop-color="#f85149" stop-opacity="0.03"/>
    </radialGradient>
    <radialGradient id="source-halo" cx="50%" cy="50%" r="50%">
      <stop offset="0%" stop-color="#22d3ee" stop-opacity="0.9"/>
      <stop offset="30%" stop-color="#06b6d4" stop-opacity="0.5"/>
      <stop offset="100%" stop-color="#06b6d4" stop-opacity="0"/>
    </radialGradient>
    <linearGradient id="wave-fade" x1="0" y1="0" x2="0" y2="1">
      <stop offset="0%" stop-color="#06b6d4" stop-opacity="0.3"/>
      <stop offset="100%" stop-color="#06b6d4" stop-opacity="0.02"/>
    </linearGradient>
    <linearGradient id="panel-bg2" x1="0" y1="0" x2="0" y2="1">
      <stop offset="0%" stop-color="#161b22" stop-opacity="0.95"/>
      <stop offset="100%" stop-color="#0d1117" stop-opacity="0.9"/>
    </linearGradient>
    <pattern id="room-grid" width="15" height="15" patternUnits="userSpaceOnUse">
      <rect width="15" height="15" fill="none"/>
      <line x1="15" y1="0" x2="15" y2="15" stroke="#14181e" stroke-width="0.3"/>
      <line x1="0" y1="15" x2="15" y2="15" stroke="#14181e" stroke-width="0.3"/>
    </pattern>

    <style>
      text { font-family: 'SF Pro Display', -apple-system, 'Inter', system-ui, sans-serif; }
      .title { font-size: 13px; font-weight: 600; fill: #e6edf3; letter-spacing: 0.04em; }
      .subtitle { font-size: 9.5px; fill: #7d8590; letter-spacing: 0.02em; }
      .label { font-size: 9px; font-weight: 500; fill: #e6edf3; letter-spacing: 0.05em; }
      .sublabel { font-size: 7.5px; fill: #7d8590; }
      .tick { font-size: 7px; fill: #484f58; font-family: 'SF Mono', monospace; }
      .metric { font-size: 8px; fill: #e6edf3; font-family: 'SF Mono', monospace; }
      .good { fill: #3fb950; }
      .warn { fill: #f0883e; }
      .bad { fill: #f85149; }
      .panel-head { font-size: 8px; font-weight: 600; fill: #7d8590; letter-spacing: 0.08em; text-transform: uppercase; }
    </style>
  </defs>

  <!-- Background -->
  <rect width="1100" height="600" rx="8" fill="url(#bg2)"/>
  <rect width="1100" height="600" rx="8" fill="url(#scan)" opacity="0.4"/>
  <rect width="1100" height="600" rx="8" fill="none" stroke="#21262d" stroke-width="0.5"/>

  <!-- Corner accents -->
  <line x1="15" y1="8" x2="15" y2="22" stroke="#06b6d4" stroke-width="1" opacity="0.25"/>
  <line x1="8" y1="15" x2="22" y2="15" stroke="#06b6d4" stroke-width="1" opacity="0.25"/>

  <!-- Header -->
  <text x="550" y="28" text-anchor="middle" class="title">Figure 2  ·  Sound Field Reconstruction: SONORA WFS vs Dolby Atmos VBAP</text>
  <line x1="200" y1="38" x2="900" y2="38" stroke="#21262d" stroke-width="0.5"/>
  <text x="550" y="52" text-anchor="middle" class="subtitle">Simulated pressure field for point source at (0, 5m)  ·  Color: localization accuracy (green &lt;3°, amber 3-10°, red &gt;10°)  ·  n=20 listeners per position</text>

  <!-- ═══════════ LEFT PANEL: SONORA WFS ═══════════ -->
  <rect x="30" y="65" width="480" height="420" rx="6" fill="url(#panel-bg2)" filter="url(#panel-drop)"/>
  <rect x="30" y="65" width="480" height="420" rx="6" fill="none" stroke="#0e7490" stroke-width="0.6" opacity="0.5"/>

  <!-- Panel header -->
  <rect x="30" y="65" width="480" height="26" rx="6" fill="#0d1117"/>
  <rect x="30" y="85" width="480" height="6" fill="#0d1117"/>
  <rect x="35" y="68" width="3" height="20" rx="1" fill="#06b6d4" opacity="0.6"/>
  <text x="48" y="82" class="label" fill="#22d3ee">(a) SONORA WFS</text>
  <text x="200" y="82" class="sublabel">2,048 channels  ·  168,000 drivers  ·  Kirchhoff-Helmholtz</text>

  <!-- Room -->
  <rect x="55" y="100" width="430" height="340" rx="3" fill="#0a0d12"/>
  <rect x="55" y="100" width="430" height="340" rx="3" fill="url(#room-grid)"/>
  <rect x="55" y="100" width="430" height="340" rx="3" fill="url(#wfs-uniform)"/>
  <rect x="55" y="100" width="430" height="340" rx="3" fill="none" stroke="#1a1f27" stroke-width="0.5"/>

  <!-- Dense speaker array (top wall) -->
  <rect x="60" y="97" width="420" height="6" rx="1" fill="#083344" stroke="#0e7490" stroke-width="0.3"/>
  <g stroke="#06b6d4" stroke-width="0.3" opacity="0.6">
    <!-- Dense driver lines -->
    <line x1="65" y1="97" x2="65" y2="103"/><line x1="70" y1="97" x2="70" y2="103"/>
    <line x1="75" y1="97" x2="75" y2="103"/><line x1="80" y1="97" x2="80" y2="103"/>
    <line x1="85" y1="97" x2="85" y2="103"/><line x1="90" y1="97" x2="90" y2="103"/>
    <line x1="95" y1="97" x2="95" y2="103"/><line x1="100" y1="97" x2="100" y2="103"/>
    <line x1="105" y1="97" x2="105" y2="103"/><line x1="110" y1="97" x2="110" y2="103"/>
    <line x1="115" y1="97" x2="115" y2="103"/><line x1="120" y1="97" x2="120" y2="103"/>
    <line x1="125" y1="97" x2="125" y2="103"/><line x1="130" y1="97" x2="130" y2="103"/>
    <line x1="135" y1="97" x2="135" y2="103"/><line x1="140" y1="97" x2="140" y2="103"/>
    <line x1="145" y1="97" x2="145" y2="103"/><line x1="150" y1="97" x2="150" y2="103"/>
    <line x1="155" y1="97" x2="155" y2="103"/><line x1="160" y1="97" x2="160" y2="103"/>
    <line x1="165" y1="97" x2="165" y2="103"/><line x1="170" y1="97" x2="170" y2="103"/>
    <line x1="175" y1="97" x2="175" y2="103"/><line x1="180" y1="97" x2="180" y2="103"/>
    <line x1="185" y1="97" x2="185" y2="103"/><line x1="190" y1="97" x2="190" y2="103"/>
    <line x1="195" y1="97" x2="195" y2="103"/><line x1="200" y1="97" x2="200" y2="103"/>
    <line x1="205" y1="97" x2="205" y2="103"/><line x1="210" y1="97" x2="210" y2="103"/>
    <line x1="215" y1="97" x2="215" y2="103"/><line x1="220" y1="97" x2="220" y2="103"/>
    <line x1="225" y1="97" x2="225" y2="103"/><line x1="230" y1="97" x2="230" y2="103"/>
    <line x1="235" y1="97" x2="235" y2="103"/><line x1="240" y1="97" x2="240" y2="103"/>
    <line x1="245" y1="97" x2="245" y2="103"/><line x1="250" y1="97" x2="250" y2="103"/>
    <line x1="255" y1="97" x2="255" y2="103"/><line x1="260" y1="97" x2="260" y2="103"/>
    <line x1="265" y1="97" x2="265" y2="103"/><line x1="270" y1="97" x2="270" y2="103"/>
    <line x1="275" y1="97" x2="275" y2="103"/><line x1="280" y1="97" x2="280" y2="103"/>
    <line x1="285" y1="97" x2="285" y2="103"/><line x1="290" y1="97" x2="290" y2="103"/>
    <line x1="295" y1="97" x2="295" y2="103"/><line x1="300" y1="97" x2="300" y2="103"/>
    <line x1="305" y1="97" x2="305" y2="103"/><line x1="310" y1="97" x2="310" y2="103"/>
    <line x1="315" y1="97" x2="315" y2="103"/><line x1="320" y1="97" x2="320" y2="103"/>
    <line x1="325" y1="97" x2="325" y2="103"/><line x1="330" y1="97" x2="330" y2="103"/>
    <line x1="335" y1="97" x2="335" y2="103"/><line x1="340" y1="97" x2="340" y2="103"/>
    <line x1="345" y1="97" x2="345" y2="103"/><line x1="350" y1="97" x2="350" y2="103"/>
    <line x1="355" y1="97" x2="355" y2="103"/><line x1="360" y1="97" x2="360" y2="103"/>
    <line x1="365" y1="97" x2="365" y2="103"/><line x1="370" y1="97" x2="370" y2="103"/>
    <line x1="375" y1="97" x2="375" y2="103"/><line x1="380" y1="97" x2="380" y2="103"/>
    <line x1="385" y1="97" x2="385" y2="103"/><line x1="390" y1="97" x2="390" y2="103"/>
    <line x1="395" y1="97" x2="395" y2="103"/><line x1="400" y1="97" x2="400" y2="103"/>
    <line x1="405" y1="97" x2="405" y2="103"/><line x1="410" y1="97" x2="410" y2="103"/>
    <line x1="415" y1="97" x2="415" y2="103"/><line x1="420" y1="97" x2="420" y2="103"/>
    <line x1="425" y1="97" x2="425" y2="103"/><line x1="430" y1="97" x2="430" y2="103"/>
    <line x1="435" y1="97" x2="435" y2="103"/><line x1="440" y1="97" x2="440" y2="103"/>
    <line x1="445" y1="97" x2="445" y2="103"/><line x1="450" y1="97" x2="450" y2="103"/>
    <line x1="455" y1="97" x2="455" y2="103"/><line x1="460" y1="97" x2="460" y2="103"/>
    <line x1="465" y1="97" x2="465" y2="103"/><line x1="470" y1="97" x2="470" y2="103"/>
    <line x1="475" y1="97" x2="475" y2="103"/>
  </g>
  <!-- Side arrays -->
  <rect x="52" y="103" width="6" height="334" rx="1" fill="#083344" stroke="#0e7490" stroke-width="0.3"/>
  <rect x="482" y="103" width="6" height="334" rx="1" fill="#083344" stroke="#0e7490" stroke-width="0.3"/>

  <!-- Virtual source with pulsing halo -->
  <circle cx="270" cy="150" r="15" fill="url(#source-halo)"/>
  <circle cx="270" cy="150" r="5" fill="#22d3ee" filter="url(#source-pulse)"/>
  <circle cx="270" cy="150" r="3" fill="#fff" opacity="0.9"/>

  <!-- Wavefronts (concentric, fading) -->
  <g stroke="#06b6d4" fill="none" opacity="0.8">
    <circle cx="270" cy="150" r="25" stroke-width="0.6" opacity="0.4"/>
    <circle cx="270" cy="150" r="50" stroke-width="0.5" opacity="0.3"/>
    <circle cx="270" cy="150" r="75" stroke-width="0.5" opacity="0.25"/>
    <circle cx="270" cy="150" r="100" stroke-width="0.4" opacity="0.2"/>
    <circle cx="270" cy="150" r="125" stroke-width="0.4" opacity="0.15"/>
    <circle cx="270" cy="150" r="150" stroke-width="0.3" opacity="0.1"/>
    <circle cx="270" cy="150" r="175" stroke-width="0.3" opacity="0.08"/>
    <circle cx="270" cy="150" r="200" stroke-width="0.2" opacity="0.05"/>
    <circle cx="270" cy="150" r="225" stroke-width="0.2" opacity="0.03"/>
    <circle cx="270" cy="150" r="250" stroke-width="0.2" opacity="0.02"/>
  </g>

  <!-- Listener positions (all green = uniform quality) -->
  <g>
    <!-- Row 1 -->
    <circle cx="150" cy="220" r="5" fill="#3fb950" opacity="0.15"/><circle cx="150" cy="220" r="3" fill="#3fb950" opacity="0.7"/>
    <text x="150" y="238" text-anchor="middle" class="tick good">1.4°</text>
    <circle cx="270" cy="220" r="5" fill="#3fb950" opacity="0.15"/><circle cx="270" cy="220" r="3" fill="#3fb950" opacity="0.7"/>
    <text x="270" y="238" text-anchor="middle" class="tick good">1.3°</text>
    <circle cx="390" cy="220" r="5" fill="#3fb950" opacity="0.15"/><circle cx="390" cy="220" r="3" fill="#3fb950" opacity="0.7"/>
    <text x="390" y="238" text-anchor="middle" class="tick good">1.5°</text>
    <!-- Row 2 -->
    <circle cx="110" cy="300" r="5" fill="#3fb950" opacity="0.12"/><circle cx="110" cy="300" r="3" fill="#3fb950" opacity="0.6"/>
    <text x="110" y="318" text-anchor="middle" class="tick good">1.8°</text>
    <circle cx="270" cy="300" r="5" fill="#3fb950" opacity="0.15"/><circle cx="270" cy="300" r="3" fill="#3fb950" opacity="0.7"/>
    <text x="270" y="318" text-anchor="middle" class="tick good">1.4°</text>
    <circle cx="430" cy="300" r="5" fill="#3fb950" opacity="0.12"/><circle cx="430" cy="300" r="3" fill="#3fb950" opacity="0.6"/>
    <text x="430" y="318" text-anchor="middle" class="tick good">1.7°</text>
    <!-- Row 3 -->
    <circle cx="130" cy="380" r="5" fill="#3fb950" opacity="0.1"/><circle cx="130" cy="380" r="3" fill="#3fb950" opacity="0.55"/>
    <text x="130" y="398" text-anchor="middle" class="tick good">2.1°</text>
    <circle cx="270" cy="380" r="5" fill="#3fb950" opacity="0.12"/><circle cx="270" cy="380" r="3" fill="#3fb950" opacity="0.6"/>
    <text x="270" y="398" text-anchor="middle" class="tick good">1.6°</text>
    <circle cx="410" cy="380" r="5" fill="#3fb950" opacity="0.1"/><circle cx="410" cy="380" r="3" fill="#3fb950" opacity="0.55"/>
    <text x="410" y="398" text-anchor="middle" class="tick good">1.9°</text>
  </g>

  <!-- WFS stats -->
  <rect x="90" y="420" width="350" height="14" rx="2" fill="#0a0d12" opacity="0.7"/>
  <text x="265" y="430" text-anchor="middle" class="metric good">Mean MAA: 1.7° (SD=0.4)  ·  ANOVA: F(5,114)=1.2, p=0.31 (n.s.)</text>

  <!-- ═══════════ RIGHT PANEL: Dolby Atmos VBAP ═══════════ -->
  <rect x="530" y="65" width="480" height="420" rx="6" fill="url(#panel-bg2)" filter="url(#panel-drop)"/>
  <rect x="530" y="65" width="480" height="420" rx="6" fill="none" stroke="#f85149" stroke-width="0.4" opacity="0.3"/>

  <!-- Panel header -->
  <rect x="530" y="65" width="480" height="26" rx="6" fill="#0d1117"/>
  <rect x="530" y="85" width="480" height="6" fill="#0d1117"/>
  <rect x="535" y="68" width="3" height="20" rx="1" fill="#f85149" opacity="0.5"/>
  <text x="548" y="82" class="label" fill="#fca5a5">(b) Dolby Atmos VBAP</text>
  <text x="700" y="82" class="sublabel">128 objects  ·  64 speakers  ·  amplitude panning</text>

  <!-- Room -->
  <rect x="555" y="100" width="430" height="340" rx="3" fill="#0a0d12"/>
  <rect x="555" y="100" width="430" height="340" rx="3" fill="url(#room-grid)"/>
  <rect x="555" y="100" width="430" height="340" rx="3" fill="url(#vbap-center)"/>
  <!-- Edge degradation overlay -->
  <rect x="555" y="100" width="70" height="340" fill="#f85149" opacity="0.02"/>
  <rect x="915" y="100" width="70" height="340" fill="#f85149" opacity="0.02"/>
  <rect x="555" y="100" width="430" height="340" rx="3" fill="none" stroke="#1a1f27" stroke-width="0.5"/>

  <!-- Sparse speakers (only ~12 visible) -->
  <g fill="#f85149" opacity="0.4">
    <circle cx="600" cy="103" r="4"/><circle cx="680" cy="103" r="4"/><circle cx="770" cy="103" r="4"/>
    <circle cx="860" cy="103" r="4"/><circle cx="940" cy="103" r="4"/>
    <circle cx="558" cy="180" r="3.5"/><circle cx="558" cy="300" r="3.5"/><circle cx="558" cy="400" r="3.5"/>
    <circle cx="982" cy="180" r="3.5"/><circle cx="982" cy="300" r="3.5"/><circle cx="982" cy="400" r="3.5"/>
  </g>

  <!-- Phantom source (dashed, unstable appearance) -->
  <circle cx="770" cy="150" r="8" fill="none" stroke="#f85149" stroke-width="1" stroke-dasharray="3 3" opacity="0.5" filter="url(#vbap-glow)"/>
  <circle cx="770" cy="150" r="3" fill="#f85149" opacity="0.4"/>
  <text x="782" y="148" class="tick bad">phantom</text>

  <!-- Listener positions (center=green, edges=red gradient) -->
  <g>
    <!-- Row 1 -->
    <circle cx="660" cy="220" r="5" fill="#f0883e" opacity="0.12"/><circle cx="660" cy="220" r="3" fill="#f0883e" opacity="0.7"/>
    <text x="660" y="238" text-anchor="middle" class="tick warn">7.2°</text>
    <circle cx="770" cy="220" r="5" fill="#3fb950" opacity="0.12"/><circle cx="770" cy="220" r="3" fill="#3fb950" opacity="0.6"/>
    <text x="770" y="238" text-anchor="middle" class="tick good">3.8°</text>
    <circle cx="880" cy="220" r="5" fill="#f0883e" opacity="0.12"/><circle cx="880" cy="220" r="3" fill="#f0883e" opacity="0.7"/>
    <text x="880" y="238" text-anchor="middle" class="tick warn">8.1°</text>
    <!-- Row 2 -->
    <circle cx="610" cy="300" r="5" fill="#f85149" opacity="0.12"/><circle cx="610" cy="300" r="3" fill="#f85149" opacity="0.7"/>
    <text x="610" y="318" text-anchor="middle" class="tick bad">12.1°</text>
    <circle cx="770" cy="300" r="5" fill="#3fb950" opacity="0.1"/><circle cx="770" cy="300" r="3" fill="#3fb950" opacity="0.5"/>
    <text x="770" y="318" text-anchor="middle" class="tick good">4.2°</text>
    <circle cx="930" cy="300" r="5" fill="#f85149" opacity="0.12"/><circle cx="930" cy="300" r="3" fill="#f85149" opacity="0.7"/>
    <text x="930" y="318" text-anchor="middle" class="tick bad">13.4°</text>
    <!-- Row 3 -->
    <circle cx="630" cy="380" r="5" fill="#f85149" opacity="0.15"/><circle cx="630" cy="380" r="3" fill="#f85149" opacity="0.8"/>
    <text x="630" y="398" text-anchor="middle" class="tick bad">16.8°</text>
    <circle cx="770" cy="380" r="5" fill="#f0883e" opacity="0.1"/><circle cx="770" cy="380" r="3" fill="#f0883e" opacity="0.6"/>
    <text x="770" y="398" text-anchor="middle" class="tick warn">5.8°</text>
    <circle cx="910" cy="380" r="5" fill="#f85149" opacity="0.15"/><circle cx="910" cy="380" r="3" fill="#f85149" opacity="0.8"/>
    <text x="910" y="398" text-anchor="middle" class="tick bad">15.2°</text>
  </g>

  <!-- Atmos stats -->
  <rect x="590" y="420" width="370" height="14" rx="2" fill="#0a0d12" opacity="0.7"/>
  <text x="775" y="430" text-anchor="middle" class="metric bad">Mean MAA: 3.8°-16.8° (position-dependent)  ·  ANOVA: F(4,95)=38.4, p&lt;0.001</text>

  <!-- ═══════════ BOTTOM LEGEND ═══════════ -->
  <rect x="30" y="500" width="1040" height="86" rx="6" fill="url(#panel-bg2)" filter="url(#panel-drop)"/>
  <rect x="30" y="500" width="1040" height="86" rx="6" fill="none" stroke="#21262d" stroke-width="0.5"/>

  <!-- Color legend -->
  <text x="50" y="520" class="panel-head">Localization Accuracy (Minimum Audible Angle)</text>

  <circle cx="55" cy="536" r="5" fill="#3fb950" opacity="0.15"/><circle cx="55" cy="536" r="3" fill="#3fb950" opacity="0.7"/>
  <text x="65" y="540" class="tick good">&lt;3° — reference quality (every listener perceives correct source position)</text>

  <circle cx="55" cy="554" r="5" fill="#f0883e" opacity="0.12"/><circle cx="55" cy="554" r="3" fill="#f0883e" opacity="0.7"/>
  <text x="65" y="558" class="tick warn">3°-10° — degraded (phantom images displaced from intended position)</text>

  <circle cx="55" cy="572" r="5" fill="#f85149" opacity="0.15"/><circle cx="55" cy="572" r="3" fill="#f85149" opacity="0.8"/>
  <text x="65" y="576" class="tick bad">&gt;10° — poor (phantom image collapse, spatial impression lost)</text>

  <!-- Physical basis -->
  <rect x="550" y="515" width="505" height="60" rx="3" fill="#0a0d12" stroke="#21262d" stroke-width="0.3"/>
  <text x="560" y="530" class="panel-head">Physical Basis</text>
  <text x="560" y="546" class="tick" fill="#22d3ee">WFS: Kirchhoff-Helmholtz wavefront reconstruction. Sound field is physically correct at every point.</text>
  <text x="560" y="560" class="tick" fill="#fca5a5">VBAP: Amplitude panning between discrete speakers. Creates phantom images that collapse off-center.</text>
  <text x="560" y="574" class="tick">Key: WFS works everywhere because it reconstructs physics. VBAP works at center because it exploits psychoacoustics.</text>
</svg>
